# xmcd
#
# Track frame offsets:
# 150
# 16790
# 33504
# 49786
# 63345
# 82057
# 102378
# 118913
# 125381
# 142420
# 156808
#
# Disc length: 2586 seconds
#
# Revision: 1
# Processed by: cddbd v1.5.2PL0 Copyright (c) Steve Scherf et al.
# Submitted via: CedeCatalogueitor 2.6.0.6 http://personales.ya.com/cdcatalogueitor
#
DISCID=9a0a180b
DTITLE=The Las 3 Lines - You Are A Deep Forest
DYEAR=1900
DGENRE=
TTITLE0=Sometimes The Trigger...
TTITLE1=You're Right
TTITLE2=Bright Lights
TTITLE3=Myriana
TTITLE4=A Prison With Views
TTITLE5=Growing Stones
TTITLE6=I Don't Wanna Know
TTITLE7=Interlade
TTITLE8=A Substitue
TTITLE9=Bark
TTITLE10=You Are A Deep Forest
EXTD=
EXTT0=
EXTT1=
EXTT2=
EXTT3=
EXTT4=
EXTT5=
EXTT6=
EXTT7=
EXTT8=
EXTT9=
EXTT10=
PLAYORDER=
